# xmcd
#
# Track frame offsets:
#	150
#	15026
#	33782
#	48351
#	63314
#	79399
#	96460
#	106740
#	127110
#	142217
#
# Disc length: 1983 seconds
#
# Revision: 0
# Processed by: cddbd v1.5.2PL0 Copyright (c) Steve Scherf et al.
# Submitted via: EasyCDDAExtractor 11.0.0.1
#
DISCID=8007bd0a
DTITLE=Brad Johner - Now That's Christmas
DYEAR=2007
DGENRE=Country
TTITLE0=Now That's Christmas
TTITLE1=Live Like King
TTITLE2=Ho, Ho, Ho, Hold Me Close
TTITLE3=Mary Did You Know
TTITLE4=Five Little Fingers
TTITLE5=My Grown Up Christmas List
TTITLE6=Rockin' Around The Christmas Tree
TTITLE7=December 32nd
TTITLE8=I'll Be Home For Christmas
TTITLE9=Alleluia
EXTD=
EXTT0=
EXTT1=
EXTT2=
EXTT3=
EXTT4=
EXTT5=
EXTT6=
EXTT7=
EXTT8=
EXTT9=
PLAYORDER=
